<svg id="Component_36_1" data-name="Component 36 – 1" xmlns="http://www.w3.org/2000/svg" width="20" height="19" viewBox="0 0 20 19">
  <g id="Group_84" data-name="Group 84" transform="translate(-1783 -423)">
    <circle id="Ellipse_67" data-name="Ellipse 67" cx="4" cy="4" r="4" transform="translate(1783 423)" fill="#404043"/>
    <circle id="Ellipse_70" data-name="Ellipse 70" cx="4" cy="4" r="4" transform="translate(1783 434)" fill="#404043"/>
    <circle id="Ellipse_68" data-name="Ellipse 68" cx="4" cy="4" r="4" transform="translate(1795 434)" fill="#404043"/>
    <circle id="Ellipse_69" data-name="Ellipse 69" cx="4" cy="4" r="4" transform="translate(1795 423)" fill="#404043"/>
  </g>
  <g id="Group_86" data-name="Group 86" opacity="0">
    <path id="Rectangle_16834" data-name="Rectangle 16834" d="M1,0H2A0,0,0,0,1,2,0V1A1,1,0,0,1,1,2H1A1,1,0,0,1,0,1V1A1,1,0,0,1,1,0Z" transform="translate(2 15)" fill="#fff"/>
    <g id="Group_85" data-name="Group 85" transform="translate(2.078 15.271)">
      <path id="Path_504" data-name="Path 504" d="M1.056,3.545H.981V3.411h.075v.014H1v.043h.056v.014H1v.049h.059Zm.1-.014h0a.036.036,0,0,1-.032.015.037.037,0,0,1-.031-.014A.06.06,0,0,1,1.078,3.5a.061.061,0,0,1,.011-.039.037.037,0,0,1,.031-.014.037.037,0,0,1,.031.015h0V3.4h.015v.143H1.155Zm-.031,0a.028.028,0,0,0,.023-.009A.043.043,0,0,0,1.152,3.5v0a.051.051,0,0,0-.007-.031.027.027,0,0,0-.023-.009.023.023,0,0,0-.021.01.052.052,0,0,0-.007.029.05.05,0,0,0,.007.029A.024.024,0,0,0,1.122,3.535Zm.093.011H1.2v-.1h.015ZM1.2,3.417a.01.01,0,0,1,0-.008l.006,0,.006,0a.01.01,0,0,1,0,.008.01.01,0,0,1,0,.008l-.006,0a.009.009,0,0,1-.006,0A.01.01,0,0,1,1.2,3.417Zm.082.117h.014v.012l-.007,0H1.277q-.029,0-.029-.031v-.06H1.234V3.449l.014-.006.006-.022h.009v.023h.029v.012H1.263v.059a.02.02,0,0,0,0,.014A.015.015,0,0,0,1.28,3.535Z" transform="translate(-0.963 -3.402)" fill="#737374"/>
      <path id="Path_505" data-name="Path 505" d="M.1,3.665H.112L.064,3.8H.048L0,3.665H.017l.031.087a.244.244,0,0,1,.008.029.243.243,0,0,1,.009-.03ZM.144,3.8H.128V3.7H.144ZM.127,3.671a.01.01,0,0,1,0-.008l.006,0,.006,0a.01.01,0,0,1,0,.008.01.01,0,0,1,0,.008l-.006,0a.009.009,0,0,1-.006,0A.01.01,0,0,1,.127,3.671Zm.092.13a.046.046,0,0,1-.035-.014A.053.053,0,0,1,.17,3.75a.058.058,0,0,1,.012-.039A.04.04,0,0,1,.215,3.7a.038.038,0,0,1,.03.012.048.048,0,0,1,.011.033v.01H.186A.04.04,0,0,0,.2,3.779a.031.031,0,0,0,.024.009.081.081,0,0,0,.032-.007v.014L.236,3.8Zm0-.092A.025.025,0,0,0,.2,3.717a.036.036,0,0,0-.009.022H.239a.034.034,0,0,0-.006-.022A.023.023,0,0,0,.214,3.71Zm.15.09L.346,3.74.339,3.716h0q0,.016-.006.025L.313,3.8H.3L.268,3.7H.284L.3,3.756A.234.234,0,0,1,.3,3.783h0l0-.014,0-.013L.331,3.7H.347l.018.058a.2.2,0,0,1,.007.027h0l0-.01L.394,3.7H.41l-.028.1Zm.115,0V3.665H.5V3.8ZM.6,3.8V3.734a.026.026,0,0,0-.006-.018A.023.023,0,0,0,.575,3.71a.029.029,0,0,0-.023.009.043.043,0,0,0-.007.028V3.8H.53V3.7H.542l0,.014h0A.031.031,0,0,1,.558,3.7a.043.043,0,0,1,.019,0A.038.038,0,0,1,.6,3.706a.037.037,0,0,1,.009.028V3.8Zm.069,0L.629,3.7H.645l.022.06a.283.283,0,0,1,.009.027h0a.206.206,0,0,1,.006-.02L.707,3.7H.724l-.038.1Zm.159-.051a.056.056,0,0,1-.012.038A.044.044,0,0,1,.78,3.8a.045.045,0,0,1-.024-.006A.042.042,0,0,1,.74,3.777a.063.063,0,0,1-.006-.028A.056.056,0,0,1,.746,3.71.044.044,0,0,1,.781,3.7a.043.043,0,0,1,.034.014A.055.055,0,0,1,.827,3.749Zm-.077,0a.048.048,0,0,0,.008.029.031.031,0,0,0,.045,0,.048.048,0,0,0,.008-.029A.047.047,0,0,0,.8,3.72.027.027,0,0,0,.78,3.71a.027.027,0,0,0-.023.01A.047.047,0,0,0,.75,3.749ZM.869,3.8H.853V3.7H.869ZM.852,3.671a.01.01,0,0,1,0-.008l.006,0,.006,0a.01.01,0,0,1,0,.008.01.01,0,0,1,0,.008l-.006,0a.009.009,0,0,1-.006,0A.01.01,0,0,1,.852,3.671Zm.089.13a.043.043,0,0,1-.034-.013A.055.055,0,0,1,.9,3.75a.057.057,0,0,1,.012-.039A.044.044,0,0,1,.942,3.7l.015,0,.011,0,0,.013-.011,0H.942q-.031,0-.031.039a.047.047,0,0,0,.007.029.026.026,0,0,0,.022.01.068.068,0,0,0,.026-.005V3.8A.055.055,0,0,1,.941,3.8Zm.092,0A.046.046,0,0,1,1,3.788.053.053,0,0,1,.985,3.75.058.058,0,0,1,1,3.711.04.04,0,0,1,1.029,3.7a.038.038,0,0,1,.03.012.048.048,0,0,1,.011.033v.01H1a.04.04,0,0,0,.009.027.031.031,0,0,0,.024.009.081.081,0,0,0,.032-.007v.014L1.051,3.8Zm0-.092a.025.025,0,0,0-.019.008A.036.036,0,0,0,1,3.739h.053a.034.034,0,0,0-.006-.022A.023.023,0,0,0,1.029,3.71Z" transform="translate(0 -3.279)" fill="#737374"/>
      <path id="Path_506" data-name="Path 506" d="M.1,3.411H.112l-.048.134H.048L0,3.411H.017L.047,3.5a.244.244,0,0,1,.008.029A.243.243,0,0,1,.065,3.5Zm.048.134H.128v-.1H.144ZM.127,3.417a.01.01,0,0,1,0-.008l.006,0,.006,0a.01.01,0,0,1,0,.008.01.01,0,0,1,0,.008l-.006,0a.009.009,0,0,1-.006,0A.01.01,0,0,1,.127,3.417Zm.092.13a.046.046,0,0,1-.035-.014A.053.053,0,0,1,.17,3.5a.058.058,0,0,1,.012-.039.04.04,0,0,1,.032-.014.038.038,0,0,1,.03.012.048.048,0,0,1,.011.033V3.5H.186A.04.04,0,0,0,.2,3.525a.031.031,0,0,0,.024.009.081.081,0,0,0,.032-.007v.014l-.015.005Zm0-.092A.025.025,0,0,0,.2,3.464a.036.036,0,0,0-.009.022H.239a.034.034,0,0,0-.006-.022A.023.023,0,0,0,.214,3.456Zm.15.09L.346,3.486.339,3.462h0q0,.016-.006.025l-.019.059H.3l-.028-.1H.284L.3,3.5A.234.234,0,0,1,.3,3.529h0l0-.014,0-.013.018-.058H.347L.365,3.5a.2.2,0,0,1,.007.027h0l0-.01.019-.074H.41l-.028.1Zm.2,0L.547,3.5H.493l-.017.043H.461L.514,3.41H.527l.053.135ZM.542,3.489.527,3.447q0-.008-.006-.019a.174.174,0,0,1-.006.019L.5,3.489Zm.087.046H.643v.012l-.007,0H.627Q.6,3.547.6,3.517v-.06H.583V3.449L.6,3.443.6,3.421H.613v.023H.642v.012H.613v.059a.02.02,0,0,0,0,.014A.015.015,0,0,0,.629,3.535Zm.067,0H.709v.012l-.007,0H.693q-.029,0-.029-.031v-.06H.65V3.449l.014-.006L.67,3.421H.679v.023H.709v.012H.679v.059a.02.02,0,0,0,0,.014A.015.015,0,0,0,.7,3.535Zm.1.011,0-.014h0a.042.042,0,0,1-.015.013.046.046,0,0,1-.019,0A.034.034,0,0,1,.73,3.54a.028.028,0,0,1-.009-.022q0-.031.049-.032H.788V3.479a.026.026,0,0,0-.005-.018.021.021,0,0,0-.016-.006.067.067,0,0,0-.029.008l0-.012.016-.006.018,0a.038.038,0,0,1,.027.008A.033.033,0,0,1,.8,3.477v.069ZM.757,3.535a.031.031,0,0,0,.022-.008.029.029,0,0,0,.008-.022V3.5H.772A.056.056,0,0,0,.746,3.5a.017.017,0,0,0-.008.016.016.016,0,0,0,.005.013A.021.021,0,0,0,.757,3.535Zm.118.013a.043.043,0,0,1-.034-.013A.055.055,0,0,1,.829,3.5a.057.057,0,0,1,.012-.039.044.044,0,0,1,.035-.014l.015,0,.011,0,0,.013-.011,0H.875q-.031,0-.031.039a.047.047,0,0,0,.007.029.026.026,0,0,0,.022.01A.068.068,0,0,0,.9,3.529v.014A.055.055,0,0,1,.874,3.547Zm.118,0V3.48a.026.026,0,0,0-.006-.018A.023.023,0,0,0,.97,3.456a.029.029,0,0,0-.023.009.044.044,0,0,0-.007.028v.053H.924V3.4H.939v.043a.094.094,0,0,1,0,.013h0a.031.031,0,0,1,.013-.011.042.042,0,0,1,.019,0A.039.039,0,0,1,1,3.452a.037.037,0,0,1,.009.028v.066Zm.175,0V3.48a.027.027,0,0,0-.005-.018.02.02,0,0,0-.016-.006.026.026,0,0,0-.021.008.039.039,0,0,0-.007.025v.056H1.1V3.48A.027.027,0,0,0,1.1,3.462a.02.02,0,0,0-.016-.006.025.025,0,0,0-.021.009.047.047,0,0,0-.007.028v.053H1.039v-.1h.012l0,.014h0a.03.03,0,0,1,.012-.011.037.037,0,0,1,.018,0,.03.03,0,0,1,.031.017h0a.032.032,0,0,1,.013-.013.041.041,0,0,1,.02,0,.034.034,0,0,1,.026.009.039.039,0,0,1,.009.028v.066Zm.089,0a.046.046,0,0,1-.035-.014A.053.053,0,0,1,1.209,3.5a.058.058,0,0,1,.012-.039.04.04,0,0,1,.032-.014.038.038,0,0,1,.03.012.048.048,0,0,1,.011.033V3.5H1.225a.04.04,0,0,0,.009.027.031.031,0,0,0,.024.009.081.081,0,0,0,.032-.007v.014l-.015.005Zm0-.092a.025.025,0,0,0-.019.008.036.036,0,0,0-.009.022h.053a.034.034,0,0,0-.006-.022A.023.023,0,0,0,1.253,3.456Zm.136.09V3.48a.026.026,0,0,0-.006-.018.023.023,0,0,0-.018-.006.029.029,0,0,0-.023.009.043.043,0,0,0-.007.028v.053H1.32v-.1h.012l0,.014h0a.031.031,0,0,1,.013-.012.043.043,0,0,1,.019,0,.038.038,0,0,1,.027.009A.037.037,0,0,1,1.4,3.48v.066Zm.079-.011h.014v.012l-.007,0H1.466q-.029,0-.029-.031v-.06H1.423V3.449l.014-.006.006-.022h.009v.023h.029v.012H1.452v.059a.02.02,0,0,0,0,.014A.015.015,0,0,0,1.469,3.535Zm.1-.017a.025.025,0,0,1-.01.022.049.049,0,0,1-.029.008A.064.064,0,0,1,1.5,3.541V3.527l.016.006.016,0a.036.036,0,0,0,.018,0,.013.013,0,0,0,0-.022.08.08,0,0,0-.02-.01l-.02-.009A.027.027,0,0,1,1.5,3.481a.023.023,0,0,1,0-.012.023.023,0,0,1,.01-.019.047.047,0,0,1,.028-.007.08.08,0,0,1,.032.007l-.005.012a.073.073,0,0,0-.028-.006.032.032,0,0,0-.016,0,.011.011,0,0,0-.006.009.011.011,0,0,0,0,.007l.007.005.018.007a.066.066,0,0,1,.024.013A.023.023,0,0,1,1.568,3.518Z" transform="translate(0 -2.649)" fill="#737374"/>
      <path id="Path_507" data-name="Path 507" d="M.1,3.8.086,3.757H.032L.016,3.8H0l.053-.135H.066L.119,3.8ZM.081,3.743.066,3.7q0-.008-.006-.019A.174.174,0,0,1,.054,3.7l-.016.042ZM.176,3.8a.043.043,0,0,1-.034-.013A.055.055,0,0,1,.13,3.75a.057.057,0,0,1,.012-.039A.044.044,0,0,1,.177,3.7l.015,0L.2,3.7l0,.013-.011,0H.176q-.031,0-.031.039a.047.047,0,0,0,.007.029.026.026,0,0,0,.022.01A.068.068,0,0,0,.2,3.782V3.8A.055.055,0,0,1,.176,3.8Zm.082-.013H.271V3.8l-.007,0H.255Q.226,3.8.226,3.77V3.71H.212V3.7L.226,3.7l.006-.022H.241V3.7H.271V3.71H.241V3.77a.02.02,0,0,0,0,.014A.015.015,0,0,0,.258,3.789ZM.307,3.8H.292V3.7H.307ZM.29,3.671a.01.01,0,0,1,0-.008l.006,0,.006,0a.01.01,0,0,1,0,.008.01.01,0,0,1,0,.008l-.006,0a.009.009,0,0,1-.006,0A.01.01,0,0,1,.29,3.671ZM.361,3.8.323,3.7H.339l.022.06a.283.283,0,0,1,.009.027h0a.206.206,0,0,1,.006-.02L.4,3.7H.417l-.038.1ZM.5,3.8l0-.014h0A.042.042,0,0,1,.477,3.8a.046.046,0,0,1-.019,0,.034.034,0,0,1-.024-.008.028.028,0,0,1-.009-.022q0-.031.049-.032H.492V3.733a.026.026,0,0,0-.005-.018A.021.021,0,0,0,.471,3.71a.067.067,0,0,0-.029.008l0-.012L.454,3.7l.018,0A.038.038,0,0,1,.5,3.7a.033.033,0,0,1,.009.026V3.8ZM.461,3.789a.031.031,0,0,0,.022-.008.029.029,0,0,0,.008-.022V3.75H.476a.056.056,0,0,0-.026.006.017.017,0,0,0-.008.016.016.016,0,0,0,.005.013A.021.021,0,0,0,.461,3.789Zm.11,0H.585V3.8l-.007,0H.569Q.54,3.8.54,3.77V3.71H.525V3.7L.54,3.7l.006-.022H.555V3.7H.584V3.71H.555V3.77a.02.02,0,0,0,0,.014A.015.015,0,0,0,.571,3.789ZM.648,3.8a.046.046,0,0,1-.035-.014A.053.053,0,0,1,.6,3.75a.058.058,0,0,1,.012-.039A.04.04,0,0,1,.644,3.7a.038.038,0,0,1,.03.012.048.048,0,0,1,.011.033v.01H.615a.04.04,0,0,0,.009.027.031.031,0,0,0,.024.009A.081.081,0,0,0,.68,3.781v.014L.665,3.8Zm0-.092a.025.025,0,0,0-.019.008.036.036,0,0,0-.009.022H.668a.034.034,0,0,0-.006-.022A.023.023,0,0,0,.643,3.71Z" transform="translate(0 -2.526)" fill="#737374"/>
      <path id="Path_508" data-name="Path 508" d="M1,3.94V4H.981V3.861h.037a.058.058,0,0,1,.037.009.034.034,0,0,1,.012.029.036.036,0,0,1-.027.036L1.076,4H1.058L1.025,3.94Zm0-.013h.021a.037.037,0,0,0,.024-.007.024.024,0,0,0,.008-.02.022.022,0,0,0-.008-.019.043.043,0,0,0-.025-.006H1ZM1.138,4A.046.046,0,0,1,1.1,3.984a.053.053,0,0,1-.013-.038A.058.058,0,0,1,1.1,3.908a.04.04,0,0,1,.032-.014.038.038,0,0,1,.03.012.048.048,0,0,1,.011.033v.01H1.106a.04.04,0,0,0,.009.027.031.031,0,0,0,.024.009.081.081,0,0,0,.032-.007v.014L1.156,4Zm0-.092a.025.025,0,0,0-.019.008.036.036,0,0,0-.009.022h.053a.034.034,0,0,0-.006-.022A.023.023,0,0,0,1.134,3.906Zm.2.09V3.93a.027.027,0,0,0-.005-.018.02.02,0,0,0-.016-.006.026.026,0,0,0-.021.008.039.039,0,0,0-.007.025V4H1.266V3.93a.027.027,0,0,0-.005-.018.02.02,0,0,0-.016-.006.025.025,0,0,0-.021.009.047.047,0,0,0-.007.028V4H1.2v-.1h.012l0,.014h0A.03.03,0,0,1,1.229,3.9a.037.037,0,0,1,.018,0,.03.03,0,0,1,.031.017h0A.032.032,0,0,1,1.291,3.9a.041.041,0,0,1,.02,0,.034.034,0,0,1,.026.009.039.039,0,0,1,.009.028V4Zm.134-.051a.056.056,0,0,1-.012.038A.044.044,0,0,1,1.417,4a.045.045,0,0,1-.024-.006.042.042,0,0,1-.016-.018.063.063,0,0,1-.006-.028.056.056,0,0,1,.012-.038.044.044,0,0,1,.034-.014.043.043,0,0,1,.034.014A.055.055,0,0,1,1.464,3.945Zm-.077,0a.048.048,0,0,0,.008.029.031.031,0,0,0,.045,0,.048.048,0,0,0,.008-.029.047.047,0,0,0-.008-.029.027.027,0,0,0-.023-.01.027.027,0,0,0-.023.01A.047.047,0,0,0,1.387,3.945ZM1.512,4l-.038-.1h.016l.022.06a.283.283,0,0,1,.009.027h0a.206.206,0,0,1,.006-.02l.024-.067h.016L1.53,4Zm.115,0a.046.046,0,0,1-.035-.014.053.053,0,0,1-.013-.038.058.058,0,0,1,.012-.039.04.04,0,0,1,.032-.014.038.038,0,0,1,.03.012.048.048,0,0,1,.011.033v.01H1.595a.04.04,0,0,0,.009.027.031.031,0,0,0,.024.009.081.081,0,0,0,.032-.007v.014L1.645,4Zm0-.092a.025.025,0,0,0-.019.008.036.036,0,0,0-.009.022h.053a.034.034,0,0,0-.006-.022A.023.023,0,0,0,1.623,3.906Z" transform="translate(-0.963 -2.138)" fill="#737374"/>
    </g>
  </g>
</svg>
