<svg xmlns="http://www.w3.org/2000/svg" xmlns:xlink="http://www.w3.org/1999/xlink" width="1819.831" height="6003.423" viewBox="0 0 1819.831 6003.423">
  <defs>
    <filter id="Path_456">
      <feOffset dx="-7" dy="8" input="SourceAlpha"/>
      <feGaussianBlur stdDeviation="25" result="blur"/>
      <feFlood flood-color="#4d4385" flood-opacity="0.22" result="color"/>
      <feComposite operator="out" in="SourceGraphic" in2="blur"/>
      <feComposite operator="in" in="color"/>
      <feComposite operator="in" in2="SourceGraphic"/>
    </filter>
  </defs>
  <g data-type="innerShadowGroup">
    <path id="Path_456-2" data-name="Path 456" d="M-252.353-37.853C-159.276-577.489,694.42-23.708,930.845,172.9s311.01,481.514,204,926.989C1035.294,1425.9,761.258,1632.648,682.4,1882.9s61.962,418.3,289.951,491.448c176.008,56.471,475.769,166.33,475.769,361.136,0,266.226-406.754,282.861-401.039,677.172,4.024,277.661,388.524,480.029,380.025,802.909-10.769,409.1-538.642,1150.043-981.28,1399.283s-807.528,0-807.528,0S-345.429,501.783-252.353-37.853Z" transform="translate(366.714 272.769)" fill="#d3d8d9"/>
    <g transform="matrix(1, 0, 0, 1, 0, 0)" filter="url(#Path_456)">
      <path id="Path_456-3" data-name="Path 456" d="M-252.353-37.853C-159.276-577.489,694.42-23.708,930.845,172.9s311.01,481.514,204,926.989C1035.294,1425.9,761.258,1632.648,682.4,1882.9s61.962,418.3,289.951,491.448c176.008,56.471,475.769,166.33,475.769,361.136,0,266.226-406.754,282.861-401.039,677.172,4.024,277.661,388.524,480.029,380.025,802.909-10.769,409.1-538.642,1150.043-981.28,1399.283s-807.528,0-807.528,0S-345.429,501.783-252.353-37.853Z" transform="translate(366.71 272.77)" fill="#fff"/>
    </g>
    <path id="Path_456-4" data-name="Path 456" d="M-252.353-37.853C-159.276-577.489,694.42-23.708,930.845,172.9s311.01,481.514,204,926.989C1035.294,1425.9,761.258,1632.648,682.4,1882.9s61.962,418.3,289.951,491.448c176.008,56.471,475.769,166.33,475.769,361.136,0,266.226-406.754,282.861-401.039,677.172,4.024,277.661,388.524,480.029,380.025,802.909-10.769,409.1-538.642,1150.043-981.28,1399.283s-807.528,0-807.528,0S-345.429,501.783-252.353-37.853Z" transform="translate(366.714 272.769)" fill="none" stroke="#eee8e8" stroke-width="10"/>
  </g>
</svg>
