<svg id="ajq_" data-name="ajq " xmlns="http://www.w3.org/2000/svg" width="215" height="215" viewBox="0 0 215 215">
  <path id="Path_423" data-name="Path 423" d="M167.387,82.394a2.1,2.1,0,0,1-1.577-.712C142.269,54.941,117.931,41.1,93.474,40.54c-25.537-.584-52.151,13.282-79.1,41.213a2.1,2.1,0,0,1-3.022-2.916A201.006,201.006,0,0,1,32.08,59.99a134.429,134.429,0,0,1,20.606-13.4,94.994,94.994,0,0,1,20.505-7.908,76.531,76.531,0,0,1,20.378-2.341,75.193,75.193,0,0,1,19.324,3.023,89.715,89.715,0,0,1,19.019,8.144,122.647,122.647,0,0,1,18.683,13.2,178.909,178.909,0,0,1,18.367,18.2,2.1,2.1,0,0,1-1.575,3.487Z" transform="translate(17.388 47.99)" fill="#009aff"/>
  <path id="Path_424" data-name="Path 424" d="M85.943,90.4A74.949,74.949,0,0,1,68.02,88.189,87.927,87.927,0,0,1,50.2,81.59,116.371,116.371,0,0,1,32.52,70.657,164.183,164.183,0,0,1,14.961,55.43a2.1,2.1,0,1,1,2.957-2.981C40.493,74.844,63.38,86.2,85.943,86.2s45.619-11.358,68.511-33.759a2.1,2.1,0,0,1,2.937,3,167.593,167.593,0,0,1-17.765,15.223A118.523,118.523,0,0,1,121.8,81.593a89.056,89.056,0,0,1-17.9,6.6A75.27,75.27,0,0,1,85.943,90.4Z" transform="translate(21.674 67.144)" fill="#009aff"/>
  <g id="Group_27" data-name="Group 27" transform="translate(41.111 57.458)">
    <path id="Line_18" data-name="Line 18" d="M9.268,13.41a2.1,2.1,0,0,1-1.62-.763L-2.02.936A2.1,2.1,0,0,1-1.737-2.02a2.1,2.1,0,0,1,2.956.283L10.886,9.974A2.1,2.1,0,0,1,9.268,13.41Z" transform="translate(2.5 27.701)" fill="#009aff"/>
    <path id="Line_19" data-name="Line 19" d="M9.268,13.41a2.1,2.1,0,0,1-1.62-.763L-2.02.936A2.1,2.1,0,0,1-1.737-2.02a2.1,2.1,0,0,1,2.956.283L10.886,9.974A2.1,2.1,0,0,1,9.268,13.41Z" transform="translate(15.749 19.045)" fill="#009aff"/>
    <path id="Line_20" data-name="Line 20" d="M4.895,15.937a2.1,2.1,0,0,1-1.968-1.368L-2.368.331a2.1,2.1,0,0,1,1.236-2.7,2.1,2.1,0,0,1,2.7,1.236l5.3,14.238a2.1,2.1,0,0,1-1.968,2.832Z" transform="translate(33.458 8.872)" fill="#009aff"/>
    <path id="Line_21" data-name="Line 21" d="M1.465,16.772A2.1,2.1,0,0,1-.617,14.93L-2.484-.142A2.1,2.1,0,0,1-.659-2.484,2.1,2.1,0,0,1,1.683-.659L3.551,14.414a2.1,2.1,0,0,1-1.825,2.342A2.121,2.121,0,0,1,1.465,16.772Z" transform="translate(50.816 3.73)" fill="#009aff"/>
    <path id="Line_22" data-name="Line 22" d="M-.4,18.442a2.1,2.1,0,0,1-2.1-2.1V-.4A2.1,2.1,0,0,1-.4-2.5,2.1,2.1,0,0,1,1.7-.4V16.342A2.1,2.1,0,0,1-.4,18.442Z" transform="translate(68.437 2.5)" fill="#009aff"/>
    <path id="Line_23" data-name="Line 23" d="M-.4,13.41a2.091,2.091,0,0,1-1.337-.482,2.1,2.1,0,0,1-.279-2.956L7.671-1.739a2.1,2.1,0,0,1,2.956-.279A2.1,2.1,0,0,1,10.907.938L1.217,12.649A2.1,2.1,0,0,1-.4,13.41Z" transform="translate(124.706 27.701)" fill="#009aff"/>
    <path id="Line_24" data-name="Line 24" d="M-.4,13.41a2.091,2.091,0,0,1-1.335-.48A2.1,2.1,0,0,1-2.02,9.974L7.648-1.737A2.1,2.1,0,0,1,10.6-2.02,2.1,2.1,0,0,1,10.886.936L1.219,12.647A2.1,2.1,0,0,1-.4,13.41Z" transform="translate(111.479 19.045)" fill="#009aff"/>
    <path id="Line_25" data-name="Line 25" d="M-.4,15.937a2.1,2.1,0,0,1-.732-.132,2.1,2.1,0,0,1-1.236-2.7l5.3-14.238a2.1,2.1,0,0,1,2.7-1.236A2.1,2.1,0,0,1,6.863.331l-5.3,14.238A2.1,2.1,0,0,1-.4,15.937Z" transform="translate(98.143 8.872)" fill="#009aff"/>
    <path id="Line_26" data-name="Line 26" d="M-.4,16.772a2.122,2.122,0,0,1-.261-.016,2.1,2.1,0,0,1-1.826-2.342L-.616-.659A2.1,2.1,0,0,1,1.725-2.484,2.1,2.1,0,0,1,3.551-.142L1.683,14.93A2.1,2.1,0,0,1-.4,16.772Z" transform="translate(84.213 3.731)" fill="#009aff"/>
  </g>
  <path id="Path_425" data-name="Path 425" d="M83,54.933a24.607,24.607,0,1,1-20.764-11.4,24.815,24.815,0,0,1,9.755,2" transform="translate(46.162 53.225)" fill="none" stroke="#009aff" stroke-linecap="round" stroke-width="5"/>
  <path id="Ellipse_35" data-name="Ellipse 35" d="M6.916-2.5a9.416,9.416,0,0,1,9.416,9.416,9.416,9.416,0,0,1-9.416,9.416A9.416,9.416,0,0,1-2.5,6.916,9.416,9.416,0,0,1,6.916-2.5Zm0,14.633A5.217,5.217,0,1,0,1.7,6.916,5.223,5.223,0,0,0,6.916,12.133Z" transform="translate(101.485 114.448)" fill="#faad16"/>
  <path id="Ellipse_36" data-name="Ellipse 36" d="M104.5-3A107.5,107.5,0,1,1-3,104.5,107.622,107.622,0,0,1,104.5-3Zm0,209.96A102.461,102.461,0,1,0,2.039,104.5,102.577,102.577,0,0,0,104.5,206.96Z" transform="translate(3 3)" fill="#fff"/>
</svg>
