<svg id="papers_" data-name="papers " xmlns="http://www.w3.org/2000/svg" width="215" height="215" viewBox="0 0 215 215">
  <path id="Ellipse_40" data-name="Ellipse 40" d="M104.5-3A107.5,107.5,0,1,1-3,104.5,107.622,107.622,0,0,1,104.5-3Zm0,209.961A102.461,102.461,0,1,0,2.039,104.5,102.577,102.577,0,0,0,104.5,206.961Z" transform="translate(3 3)" fill="#fff"/>
  <path id="Path_429" data-name="Path 429" d="M42.97,43.188A15.726,15.726,0,0,1,58.443,30H117.3a15.723,15.723,0,0,1,15.679,15.679v77.38a15.737,15.737,0,0,1-10.252,14.7" transform="translate(24.65 17.037)" fill="rgba(0,0,0,0)"/>
  <path id="Path_429_-_Outline" data-name="Path 429 - Outline" d="M123.067,139.321l-1.465-3.935a13.661,13.661,0,0,0,8.885-12.728V45.279A13.6,13.6,0,0,0,116.908,31.7H58.048a13.7,13.7,0,0,0-13.4,11.423l-4.145-.67A17.825,17.825,0,0,1,58.048,27.5h58.86a17.583,17.583,0,0,1,6.906,1.4,17.927,17.927,0,0,1,9.467,9.463,17.576,17.576,0,0,1,1.405,6.913v77.38a17.6,17.6,0,0,1-3.277,10.248,17.935,17.935,0,0,1-8.342,6.415Z" transform="translate(25.045 17.437)" fill="#009aff"/>
  <rect id="Rectangle_99" data-name="Rectangle 99" width="90.218" height="108.738" rx="9.88" transform="translate(57.368 59.24)" fill="#fff"/>
  <path id="Rectangle_99_-_Outline" data-name="Rectangle 99 - Outline" d="M7.9-2.5H81.52a10.4,10.4,0,0,1,10.4,10.4V100.04a10.4,10.4,0,0,1-10.4,10.4H7.9a10.4,10.4,0,0,1-10.4-10.4V7.9A10.4,10.4,0,0,1,7.9-2.5ZM81.52,106.238a6.205,6.205,0,0,0,6.2-6.2V7.9a6.205,6.205,0,0,0-6.2-6.2H7.9A6.205,6.205,0,0,0,1.7,7.9V100.04a6.205,6.205,0,0,0,6.2,6.2Z" transform="translate(57.769 59.641)" fill="#009aff"/>
  <g id="Group_26" data-name="Group 26" transform="translate(67.667 69.08)">
    <g id="Group_21" data-name="Group 21">
      <rect id="Rectangle_100" data-name="Rectangle 100" width="16.885" height="11.997" rx="5.39" fill="#faad16"/>
      <rect id="Rectangle_101" data-name="Rectangle 101" width="16.885" height="11.997" rx="5.39" transform="translate(26.375)" fill="#faad16"/>
      <rect id="Rectangle_102" data-name="Rectangle 102" width="16.885" height="11.997" rx="5.39" transform="translate(52.734)" fill="#faad16"/>
    </g>
    <g id="Group_22" data-name="Group 22" transform="translate(0 18.885)">
      <rect id="Rectangle_103" data-name="Rectangle 103" width="16.885" height="11.997" rx="5.39" fill="#faad16"/>
      <rect id="Rectangle_104" data-name="Rectangle 104" width="16.885" height="11.997" rx="5.39" transform="translate(26.375)" fill="#faad16"/>
      <rect id="Rectangle_105" data-name="Rectangle 105" width="16.885" height="11.997" rx="5.39" transform="translate(52.734)" fill="#faad16"/>
    </g>
    <g id="Group_23" data-name="Group 23" transform="translate(0 37.769)">
      <rect id="Rectangle_106" data-name="Rectangle 106" width="16.885" height="11.997" rx="5.39" fill="#faad16"/>
      <rect id="Rectangle_107" data-name="Rectangle 107" width="16.885" height="11.997" rx="5.39" transform="translate(26.375)" fill="#faad16"/>
      <rect id="Rectangle_108" data-name="Rectangle 108" width="16.885" height="11.997" rx="5.39" transform="translate(52.734)" fill="#faad16"/>
    </g>
    <g id="Group_24" data-name="Group 24" transform="translate(0 56.654)">
      <rect id="Rectangle_109" data-name="Rectangle 109" width="16.885" height="11.997" rx="5.39" fill="#faad16"/>
      <rect id="Rectangle_110" data-name="Rectangle 110" width="16.885" height="11.997" rx="5.39" transform="translate(26.375)" fill="#faad16"/>
      <rect id="Rectangle_111" data-name="Rectangle 111" width="16.885" height="11.997" rx="5.39" transform="translate(52.734)" fill="#faad16"/>
    </g>
    <g id="Group_25" data-name="Group 25" transform="translate(0 75.539)">
      <rect id="Rectangle_112" data-name="Rectangle 112" width="16.885" height="11.997" rx="5.39" fill="#faad16"/>
      <rect id="Rectangle_113" data-name="Rectangle 113" width="16.885" height="11.997" rx="5.39" transform="translate(26.375)" fill="#faad16"/>
      <rect id="Rectangle_114" data-name="Rectangle 114" width="16.885" height="11.997" rx="5.39" transform="translate(52.734)" fill="#faad16"/>
    </g>
  </g>
</svg>
