<svg id="farinaskop_" data-name="farinaskop " xmlns="http://www.w3.org/2000/svg" width="215" height="215" viewBox="0 0 215 215">
  <g id="Group_28" data-name="Group 28" transform="translate(49.551 42.832)">
    <path id="Path_426" data-name="Path 426" d="M68.576,120.368H61.6a36.731,36.731,0,0,1-14.442-2.935,37.525,37.525,0,0,1-19.8-19.8A36.733,36.733,0,0,1,24.42,83.188V43.157a18.97,18.97,0,0,1,17.823-18.9l.241,4.192a14.729,14.729,0,0,0-13.864,14.7V83.188A33.019,33.019,0,0,0,61.6,116.169h6.975a33.019,33.019,0,0,0,32.981-32.981V43.157A14.754,14.754,0,0,0,86.819,28.419h-.394v-4.2h.394a18.726,18.726,0,0,1,7.36,1.5A19.1,19.1,0,0,1,104.261,35.8a18.722,18.722,0,0,1,1.5,7.359V83.188a36.733,36.733,0,0,1-2.935,14.442,37.525,37.525,0,0,1-19.8,19.8A36.733,36.733,0,0,1,68.576,120.368Z" transform="translate(-24.42 -18.239)" fill="#404043"/>
    <path id="Path_427" data-name="Path 427" d="M68.576,83.18H61.6a36.725,36.725,0,0,1-14.442-2.935,37.527,37.527,0,0,1-19.8-19.8A36.73,36.73,0,0,1,24.42,46h4.2A33.019,33.019,0,0,0,61.6,78.981h6.975A33.018,33.018,0,0,0,101.557,46h4.2a36.725,36.725,0,0,1-2.935,14.442,37.525,37.525,0,0,1-19.8,19.8A36.726,36.726,0,0,1,68.576,83.18Z" transform="translate(-24.42 -1.77)" fill="#404043"/>
    <path id="Line_27" data-name="Line 27" d="M-.4,14.674a2.1,2.1,0,0,1-2.1-2.1V-.4A2.1,2.1,0,0,1-.4-2.5,2.1,2.1,0,0,1,1.7-.4V12.574A2.1,2.1,0,0,1-.4,14.674Z" transform="translate(18.344 2.5)" fill="#404043"/>
    <path id="Line_28" data-name="Line 28" d="M-.4,14.674a2.1,2.1,0,0,1-2.1-2.1V-.4A2.1,2.1,0,0,1-.4-2.5,2.1,2.1,0,0,1,1.7-.4V12.574A2.1,2.1,0,0,1-.4,14.674Z" transform="translate(62.406 2.5)" fill="#404043"/>
    <path id="Rectangle_98" data-name="Rectangle 98" d="M2.741-2.5H5.984a5.247,5.247,0,0,1,5.241,5.241v5.83a5.247,5.247,0,0,1-5.241,5.241H2.741A5.247,5.247,0,0,1-2.5,8.571V2.741A5.247,5.247,0,0,1,2.741-2.5ZM5.984,9.612A1.043,1.043,0,0,0,7.025,8.571V2.741A1.043,1.043,0,0,0,5.984,1.7H2.741A1.043,1.043,0,0,0,1.7,2.741v5.83A1.043,1.043,0,0,0,2.741,9.612Z" transform="translate(36.306 100.393)" fill="#404043"/>
    <path id="Path_428" data-name="Path 428" d="M74.577,140.158H59.708a14.548,14.548,0,0,1-5.72-1.164,14.847,14.847,0,0,1-7.835-7.835,14.539,14.539,0,0,1-1.164-5.719v-1.931h4.2v1.931a10.531,10.531,0,0,0,10.519,10.519H74.577a31.611,31.611,0,0,0,31.575-31.575V34.99h4.2v69.393a35.361,35.361,0,0,1-2.823,13.9,36.091,36.091,0,0,1-19.053,19.053A35.355,35.355,0,0,1,74.577,140.158Z" transform="translate(-6.422 -11.403)" fill="#404043"/>
    <path id="Ellipse_37" data-name="Ellipse 37" d="M11.675-2.5A14.171,14.171,0,0,1,21.7,21.7,14.174,14.174,0,1,1,6.157-1.385,14.088,14.088,0,0,1,11.675-2.5Zm0,24.15A9.975,9.975,0,1,0,1.7,11.674,9.987,9.987,0,0,0,11.675,21.65Z" transform="translate(90.156 11.912)" fill="#404043"/>
    <ellipse id="Ellipse_38" data-name="Ellipse 38" cx="6.09" cy="6.09" rx="6.09" ry="6.09" transform="translate(95.74 17.497)" fill="#faad16"/>
  </g>
  <path id="Ellipse_39" data-name="Ellipse 39" d="M104.5-3A107.5,107.5,0,1,1-3,104.5,107.622,107.622,0,0,1,104.5-3Zm0,209.96A102.461,102.461,0,1,0,2.039,104.5,102.577,102.577,0,0,0,104.5,206.96Z" transform="translate(3 3)" fill="#737374"/>
</svg>
