<svg xmlns="http://www.w3.org/2000/svg" width="218" height="23" viewBox="0 0 218 23">
  <g id="Group_72" data-name="Group 72" transform="translate(-858 -4527)">
    <path id="Icon_awesome-facebook" data-name="Icon awesome-facebook" d="M23.563,12.132a11.5,11.5,0,1,0-13.3,11.43V15.477H7.344V12.132h2.921V9.583c0-2.9,1.716-4.5,4.344-4.5a17.594,17.594,0,0,1,2.575.226V8.154h-1.45a1.667,1.667,0,0,0-1.874,1.807v2.172h3.189l-.51,3.345H13.859v8.085A11.553,11.553,0,0,0,23.563,12.132Z" transform="translate(977.438 4526.438)" fill="#fff"/>
    <path id="Icon_awesome-instagram" data-name="Icon awesome-instagram" d="M11.5,7.841a5.9,5.9,0,1,0,5.9,5.9A5.887,5.887,0,0,0,11.5,7.841Zm0,9.731a3.834,3.834,0,1,1,3.833-3.834A3.84,3.84,0,0,1,11.5,17.571ZM19.009,7.6a1.375,1.375,0,1,1-1.375-1.375A1.372,1.372,0,0,1,19.009,7.6Zm3.9,1.4a6.808,6.808,0,0,0-1.857-4.819,6.849,6.849,0,0,0-4.818-1.858c-1.9-.108-7.589-.108-9.487,0A6.839,6.839,0,0,0,1.933,4.171,6.83,6.83,0,0,0,.076,8.99c-.108,1.9-.108,7.591,0,9.489A6.808,6.808,0,0,0,1.933,23.3a6.858,6.858,0,0,0,4.818,1.858c1.9.108,7.589.108,9.487,0A6.8,6.8,0,0,0,21.056,23.3a6.852,6.852,0,0,0,1.857-4.819c.108-1.9.108-7.585,0-9.484ZM20.461,20.517A3.881,3.881,0,0,1,18.275,22.7c-1.514.6-5.105.462-6.778.462s-5.27.133-6.778-.462a3.881,3.881,0,0,1-2.186-2.186c-.6-1.514-.462-5.107-.462-6.78s-.133-5.271.462-6.78A3.881,3.881,0,0,1,4.719,4.772c1.514-.6,5.105-.462,6.778-.462s5.27-.133,6.778.462a3.881,3.881,0,0,1,2.186,2.186c.6,1.514.462,5.107.462,6.78S21.062,19.008,20.461,20.517Z" transform="translate(918.005 4524.762)" fill="#fff"/>
    <path id="Icon_awesome-linkedin" data-name="Icon awesome-linkedin" d="M21.357,2.25H1.638A1.65,1.65,0,0,0,0,3.908V23.592A1.65,1.65,0,0,0,1.638,25.25H21.357A1.654,1.654,0,0,0,23,23.592V3.908A1.654,1.654,0,0,0,21.357,2.25ZM6.951,21.964H3.542V10.988H6.956V21.964ZM5.247,9.489A1.977,1.977,0,1,1,7.223,7.512,1.977,1.977,0,0,1,5.247,9.489ZM19.73,21.964H16.321V16.625c0-1.273-.026-2.911-1.771-2.911-1.776,0-2.048,1.386-2.048,2.819v5.432H9.092V10.988h3.27v1.5h.046a3.591,3.591,0,0,1,3.229-1.771c3.45,0,4.092,2.274,4.092,5.231Z" transform="translate(858 4524.75)" fill="#fff"/>
    <path id="Icon_awesome-vk" data-name="Icon awesome-vk" d="M38.442,8.281c.261-.882,0-1.531-1.256-1.531H33.031a1.784,1.784,0,0,0-1.806,1.178,34.815,34.815,0,0,1-5.107,8.5c-.966.966-1.411,1.277-1.94,1.277-.261,0-.663-.31-.663-1.192V8.281c0-1.058-.3-1.531-1.171-1.531H15.811a1,1,0,0,0-1.058.952c0,1,1.5,1.235,1.651,4.056v6.123c0,1.34-.24,1.587-.769,1.587-1.411,0-4.839-5.178-6.871-11.1C8.355,7.216,7.953,6.75,6.888,6.75H2.733c-1.185,0-1.425.557-1.425,1.178,0,1.1,1.411,6.568,6.568,13.791,3.435,4.931,8.275,7.6,12.677,7.6,2.645,0,2.97-.593,2.97-1.615,0-4.712-.24-5.157,1.086-5.157.614,0,1.672.31,4.141,2.688,2.822,2.822,3.287,4.084,4.867,4.084h4.155c1.185,0,1.785-.593,1.439-1.764-.79-2.462-6.13-7.527-6.37-7.866-.614-.79-.437-1.143,0-1.848.007-.007,5.079-7.146,5.6-9.566Z" transform="translate(1036.692 4520.25)" fill="#fff"/>
  </g>
</svg>
