<svg xmlns="http://www.w3.org/2000/svg" width="23" height="23" viewBox="0 0 23 23">
  <path id="Icon_awesome-instagram" data-name="Icon awesome-instagram" d="M11.5,7.841a5.9,5.9,0,1,0,5.9,5.9A5.887,5.887,0,0,0,11.5,7.841Zm0,9.731a3.834,3.834,0,1,1,3.833-3.834A3.84,3.84,0,0,1,11.5,17.571ZM19.009,7.6a1.375,1.375,0,1,1-1.375-1.375A1.372,1.372,0,0,1,19.009,7.6Zm3.9,1.4a6.808,6.808,0,0,0-1.857-4.819,6.849,6.849,0,0,0-4.818-1.858c-1.9-.108-7.589-.108-9.487,0A6.839,6.839,0,0,0,1.933,4.171,6.83,6.83,0,0,0,.076,8.99c-.108,1.9-.108,7.591,0,9.489A6.808,6.808,0,0,0,1.933,23.3a6.858,6.858,0,0,0,4.818,1.858c1.9.108,7.589.108,9.487,0A6.8,6.8,0,0,0,21.056,23.3a6.852,6.852,0,0,0,1.857-4.819c.108-1.9.108-7.585,0-9.484ZM20.461,20.517A3.881,3.881,0,0,1,18.275,22.7c-1.514.6-5.105.462-6.778.462s-5.27.133-6.778-.462a3.881,3.881,0,0,1-2.186-2.186c-.6-1.514-.462-5.107-.462-6.78s-.133-5.271.462-6.78A3.881,3.881,0,0,1,4.719,4.772c1.514-.6,5.105-.462,6.778-.462s5.27-.133,6.778.462a3.881,3.881,0,0,1,2.186,2.186c.6,1.514.462,5.107.462,6.78S21.062,19.008,20.461,20.517Z" transform="translate(0.005 -2.238)" fill="#fff"/>
</svg>
