<svg xmlns="http://www.w3.org/2000/svg" width="23" height="23" viewBox="0 0 23 23">
  <path id="Icon_awesome-linkedin" data-name="Icon awesome-linkedin" d="M21.357,2.25H1.638A1.65,1.65,0,0,0,0,3.908V23.592A1.65,1.65,0,0,0,1.638,25.25H21.357A1.654,1.654,0,0,0,23,23.592V3.908A1.654,1.654,0,0,0,21.357,2.25ZM6.951,21.964H3.542V10.988H6.956V21.964ZM5.247,9.489A1.977,1.977,0,1,1,7.223,7.512,1.977,1.977,0,0,1,5.247,9.489ZM19.73,21.964H16.321V16.625c0-1.273-.026-2.911-1.771-2.911-1.776,0-2.048,1.386-2.048,2.819v5.432H9.092V10.988h3.27v1.5h.046a3.591,3.591,0,0,1,3.229-1.771c3.45,0,4.092,2.274,4.092,5.231Z" transform="translate(0 -2.25)" fill="#fff"/>
</svg>
