<svg xmlns="http://www.w3.org/2000/svg" width="38" height="22.574" viewBox="0 0 38 22.574">
  <path id="Icon_awesome-vk" data-name="Icon awesome-vk" d="M38.442,8.281c.261-.882,0-1.531-1.256-1.531H33.031a1.784,1.784,0,0,0-1.806,1.178,34.815,34.815,0,0,1-5.107,8.5c-.966.966-1.411,1.277-1.94,1.277-.261,0-.663-.31-.663-1.192V8.281c0-1.058-.3-1.531-1.171-1.531H15.811a1,1,0,0,0-1.058.952c0,1,1.5,1.235,1.651,4.056v6.123c0,1.34-.24,1.587-.769,1.587-1.411,0-4.839-5.178-6.871-11.1C8.355,7.216,7.953,6.75,6.888,6.75H2.733c-1.185,0-1.425.557-1.425,1.178,0,1.1,1.411,6.568,6.568,13.791,3.435,4.931,8.275,7.6,12.677,7.6,2.645,0,2.97-.593,2.97-1.615,0-4.712-.24-5.157,1.086-5.157.614,0,1.672.31,4.141,2.688,2.822,2.822,3.287,4.084,4.867,4.084h4.155c1.185,0,1.785-.593,1.439-1.764-.79-2.462-6.13-7.527-6.37-7.866-.614-.79-.437-1.143,0-1.848.007-.007,5.079-7.146,5.6-9.566Z" transform="translate(-1.308 -6.75)" fill="#fff"/>
</svg>
